<mxfile host="Electron" agent="Mozilla/5.0 (X11; Linux x86_64) AppleWebKit/537.36 (KHTML, like Gecko) draw.io/24.7.17 Chrome/128.0.6613.36 Electron/32.0.1 Safari/537.36" version="24.7.17">
  <diagram id="C5RBs43oDa-KdzZeNtuy" name="Page-1">
    <mxGraphModel dx="2620" dy="2213" grid="1" gridSize="10" guides="1" tooltips="1" connect="1" arrows="1" fold="1" page="1" pageScale="1" pageWidth="827" pageHeight="1169" math="0" shadow="0">
      <root>
        <mxCell id="WIyWlLk6GJQsqaUBKTNV-0" />
        <mxCell id="WIyWlLk6GJQsqaUBKTNV-1" parent="WIyWlLk6GJQsqaUBKTNV-0" />
        <mxCell id="KRZpOHScRzdug_o26mUK-9" value="" style="rounded=0;whiteSpace=wrap;html=1;" vertex="1" parent="WIyWlLk6GJQsqaUBKTNV-1">
          <mxGeometry x="120" y="120" width="120" height="120" as="geometry" />
        </mxCell>
        <mxCell id="KRZpOHScRzdug_o26mUK-10" value="&lt;b&gt;Grid&lt;/b&gt;" style="rounded=0;whiteSpace=wrap;html=1;" vertex="1" parent="WIyWlLk6GJQsqaUBKTNV-1">
          <mxGeometry x="120" y="120" width="120" height="30" as="geometry" />
        </mxCell>
        <mxCell id="KRZpOHScRzdug_o26mUK-11" value="&lt;ul&gt;&lt;li&gt;input_Grid&lt;/li&gt;&lt;li&gt;x_size&lt;/li&gt;&lt;li&gt;y_size&lt;/li&gt;&lt;li&gt;x_offset&lt;/li&gt;&lt;li&gt;y_offset&lt;/li&gt;&lt;/ul&gt;" style="rounded=0;whiteSpace=wrap;html=1;align=left;" vertex="1" parent="WIyWlLk6GJQsqaUBKTNV-1">
          <mxGeometry x="120" y="150" width="120" height="90" as="geometry" />
        </mxCell>
        <mxCell id="KRZpOHScRzdug_o26mUK-12" value="" style="rounded=0;whiteSpace=wrap;html=1;" vertex="1" parent="WIyWlLk6GJQsqaUBKTNV-1">
          <mxGeometry x="360" y="120" width="120" height="120" as="geometry" />
        </mxCell>
        <mxCell id="KRZpOHScRzdug_o26mUK-13" value="&lt;b&gt;Segment&lt;/b&gt;" style="rounded=0;whiteSpace=wrap;html=1;" vertex="1" parent="WIyWlLk6GJQsqaUBKTNV-1">
          <mxGeometry x="360" y="120" width="120" height="30" as="geometry" />
        </mxCell>
        <mxCell id="KRZpOHScRzdug_o26mUK-14" value="&lt;ul&gt;&lt;li&gt;obstical&lt;/li&gt;&lt;li&gt;visited&lt;/li&gt;&lt;/ul&gt;" style="rounded=0;whiteSpace=wrap;html=1;align=left;" vertex="1" parent="WIyWlLk6GJQsqaUBKTNV-1">
          <mxGeometry x="360" y="150" width="120" height="90" as="geometry" />
        </mxCell>
        <mxCell id="KRZpOHScRzdug_o26mUK-17" value="" style="endArrow=classic;html=1;rounded=0;" edge="1" parent="WIyWlLk6GJQsqaUBKTNV-1">
          <mxGeometry relative="1" as="geometry">
            <mxPoint x="240" y="190" as="sourcePoint" />
            <mxPoint x="360" y="190" as="targetPoint" />
          </mxGeometry>
        </mxCell>
        <mxCell id="KRZpOHScRzdug_o26mUK-18" value="enthält" style="edgeLabel;resizable=0;html=1;;align=center;verticalAlign=middle;" connectable="0" vertex="1" parent="KRZpOHScRzdug_o26mUK-17">
          <mxGeometry relative="1" as="geometry" />
        </mxCell>
        <mxCell id="KRZpOHScRzdug_o26mUK-19" value="1" style="edgeLabel;resizable=0;html=1;;align=left;verticalAlign=bottom;" connectable="0" vertex="1" parent="KRZpOHScRzdug_o26mUK-17">
          <mxGeometry x="-1" relative="1" as="geometry" />
        </mxCell>
        <mxCell id="KRZpOHScRzdug_o26mUK-20" value="1...*" style="edgeLabel;resizable=0;html=1;;align=right;verticalAlign=bottom;" connectable="0" vertex="1" parent="KRZpOHScRzdug_o26mUK-17">
          <mxGeometry x="1" relative="1" as="geometry">
            <mxPoint x="-10" y="-10" as="offset" />
          </mxGeometry>
        </mxCell>
        <mxCell id="KRZpOHScRzdug_o26mUK-22" value="" style="rounded=0;whiteSpace=wrap;html=1;" vertex="1" parent="WIyWlLk6GJQsqaUBKTNV-1">
          <mxGeometry x="600" y="120" width="120" height="120" as="geometry" />
        </mxCell>
        <mxCell id="KRZpOHScRzdug_o26mUK-23" value="&lt;b&gt;Position&lt;/b&gt;" style="rounded=0;whiteSpace=wrap;html=1;" vertex="1" parent="WIyWlLk6GJQsqaUBKTNV-1">
          <mxGeometry x="600" y="120" width="120" height="30" as="geometry" />
        </mxCell>
        <mxCell id="KRZpOHScRzdug_o26mUK-24" value="&lt;ul&gt;&lt;li&gt;x_pos&lt;/li&gt;&lt;li&gt;y_pos&lt;/li&gt;&lt;li&gt;z_pos&lt;/li&gt;&lt;/ul&gt;" style="rounded=0;whiteSpace=wrap;html=1;align=left;" vertex="1" parent="WIyWlLk6GJQsqaUBKTNV-1">
          <mxGeometry x="600" y="150" width="120" height="90" as="geometry" />
        </mxCell>
        <mxCell id="KRZpOHScRzdug_o26mUK-25" value="" style="endArrow=classic;html=1;rounded=0;" edge="1" parent="WIyWlLk6GJQsqaUBKTNV-1">
          <mxGeometry relative="1" as="geometry">
            <mxPoint x="480" y="190" as="sourcePoint" />
            <mxPoint x="600" y="190" as="targetPoint" />
          </mxGeometry>
        </mxCell>
        <mxCell id="KRZpOHScRzdug_o26mUK-26" value="enthält" style="edgeLabel;resizable=0;html=1;;align=center;verticalAlign=middle;" connectable="0" vertex="1" parent="KRZpOHScRzdug_o26mUK-25">
          <mxGeometry relative="1" as="geometry" />
        </mxCell>
        <mxCell id="KRZpOHScRzdug_o26mUK-27" value="1" style="edgeLabel;resizable=0;html=1;;align=left;verticalAlign=bottom;" connectable="0" vertex="1" parent="KRZpOHScRzdug_o26mUK-25">
          <mxGeometry x="-1" relative="1" as="geometry" />
        </mxCell>
        <mxCell id="KRZpOHScRzdug_o26mUK-28" value="1" style="edgeLabel;resizable=0;html=1;;align=right;verticalAlign=bottom;" connectable="0" vertex="1" parent="KRZpOHScRzdug_o26mUK-25">
          <mxGeometry x="1" relative="1" as="geometry">
            <mxPoint x="-10" y="-10" as="offset" />
          </mxGeometry>
        </mxCell>
        <mxCell id="KRZpOHScRzdug_o26mUK-29" value="" style="rounded=0;whiteSpace=wrap;html=1;" vertex="1" parent="WIyWlLk6GJQsqaUBKTNV-1">
          <mxGeometry x="-120" y="120" width="120" height="120" as="geometry" />
        </mxCell>
        <mxCell id="KRZpOHScRzdug_o26mUK-30" value="&lt;b&gt;Mission&lt;/b&gt;" style="rounded=0;whiteSpace=wrap;html=1;" vertex="1" parent="WIyWlLk6GJQsqaUBKTNV-1">
          <mxGeometry x="-120" y="120" width="120" height="30" as="geometry" />
        </mxCell>
        <mxCell id="KRZpOHScRzdug_o26mUK-31" value="" style="rounded=0;whiteSpace=wrap;html=1;" vertex="1" parent="WIyWlLk6GJQsqaUBKTNV-1">
          <mxGeometry x="-120" y="150" width="120" height="90" as="geometry" />
        </mxCell>
        <mxCell id="KRZpOHScRzdug_o26mUK-32" value="" style="endArrow=classic;html=1;rounded=0;" edge="1" parent="WIyWlLk6GJQsqaUBKTNV-1">
          <mxGeometry relative="1" as="geometry">
            <mxPoint y="190" as="sourcePoint" />
            <mxPoint x="120" y="190" as="targetPoint" />
          </mxGeometry>
        </mxCell>
        <mxCell id="KRZpOHScRzdug_o26mUK-33" value="enthält" style="edgeLabel;resizable=0;html=1;;align=center;verticalAlign=middle;" connectable="0" vertex="1" parent="KRZpOHScRzdug_o26mUK-32">
          <mxGeometry relative="1" as="geometry" />
        </mxCell>
        <mxCell id="KRZpOHScRzdug_o26mUK-34" value="1" style="edgeLabel;resizable=0;html=1;;align=left;verticalAlign=bottom;" connectable="0" vertex="1" parent="KRZpOHScRzdug_o26mUK-32">
          <mxGeometry x="-1" relative="1" as="geometry" />
        </mxCell>
        <mxCell id="KRZpOHScRzdug_o26mUK-35" value="1" style="edgeLabel;resizable=0;html=1;;align=right;verticalAlign=bottom;" connectable="0" vertex="1" parent="KRZpOHScRzdug_o26mUK-32">
          <mxGeometry x="1" relative="1" as="geometry">
            <mxPoint x="-10" y="-10" as="offset" />
          </mxGeometry>
        </mxCell>
        <mxCell id="KRZpOHScRzdug_o26mUK-36" value="" style="rounded=0;whiteSpace=wrap;html=1;" vertex="1" parent="WIyWlLk6GJQsqaUBKTNV-1">
          <mxGeometry x="-120" y="360" width="120" height="120" as="geometry" />
        </mxCell>
        <mxCell id="KRZpOHScRzdug_o26mUK-37" value="&lt;b&gt;Path&lt;/b&gt;" style="rounded=0;whiteSpace=wrap;html=1;" vertex="1" parent="WIyWlLk6GJQsqaUBKTNV-1">
          <mxGeometry x="-120" y="360" width="120" height="30" as="geometry" />
        </mxCell>
        <mxCell id="KRZpOHScRzdug_o26mUK-38" value="" style="endArrow=classic;html=1;rounded=0;" edge="1" parent="WIyWlLk6GJQsqaUBKTNV-1">
          <mxGeometry relative="1" as="geometry">
            <mxPoint x="-60.34" y="240" as="sourcePoint" />
            <mxPoint x="-60.34" y="360" as="targetPoint" />
          </mxGeometry>
        </mxCell>
        <mxCell id="KRZpOHScRzdug_o26mUK-39" value="enthält" style="edgeLabel;resizable=0;html=1;;align=center;verticalAlign=middle;" connectable="0" vertex="1" parent="KRZpOHScRzdug_o26mUK-38">
          <mxGeometry relative="1" as="geometry">
            <mxPoint y="10" as="offset" />
          </mxGeometry>
        </mxCell>
        <mxCell id="KRZpOHScRzdug_o26mUK-40" value="1" style="edgeLabel;resizable=0;html=1;;align=left;verticalAlign=bottom;" connectable="0" vertex="1" parent="KRZpOHScRzdug_o26mUK-38">
          <mxGeometry x="-1" relative="1" as="geometry" />
        </mxCell>
        <mxCell id="KRZpOHScRzdug_o26mUK-41" value="1" style="edgeLabel;resizable=0;html=1;;align=right;verticalAlign=bottom;" connectable="0" vertex="1" parent="KRZpOHScRzdug_o26mUK-38">
          <mxGeometry x="1" relative="1" as="geometry">
            <mxPoint x="-10" y="-10" as="offset" />
          </mxGeometry>
        </mxCell>
        <mxCell id="KRZpOHScRzdug_o26mUK-42" value="" style="endArrow=classic;html=1;rounded=0;" edge="1" parent="WIyWlLk6GJQsqaUBKTNV-1">
          <mxGeometry relative="1" as="geometry">
            <mxPoint y="430" as="sourcePoint" />
            <mxPoint x="640" y="240" as="targetPoint" />
            <Array as="points">
              <mxPoint x="640" y="430" />
            </Array>
          </mxGeometry>
        </mxCell>
        <mxCell id="KRZpOHScRzdug_o26mUK-43" value="enthält" style="edgeLabel;resizable=0;html=1;;align=center;verticalAlign=middle;" connectable="0" vertex="1" parent="KRZpOHScRzdug_o26mUK-42">
          <mxGeometry relative="1" as="geometry" />
        </mxCell>
        <mxCell id="KRZpOHScRzdug_o26mUK-44" value="1" style="edgeLabel;resizable=0;html=1;;align=left;verticalAlign=bottom;" connectable="0" vertex="1" parent="KRZpOHScRzdug_o26mUK-42">
          <mxGeometry x="-1" relative="1" as="geometry" />
        </mxCell>
        <mxCell id="KRZpOHScRzdug_o26mUK-45" value="1...*" style="edgeLabel;resizable=0;html=1;;align=right;verticalAlign=bottom;" connectable="0" vertex="1" parent="KRZpOHScRzdug_o26mUK-42">
          <mxGeometry x="1" relative="1" as="geometry">
            <mxPoint x="-10" y="-10" as="offset" />
          </mxGeometry>
        </mxCell>
        <mxCell id="KRZpOHScRzdug_o26mUK-46" value="1...*" style="edgeLabel;resizable=0;html=1;;align=right;verticalAlign=bottom;" connectable="0" vertex="1" parent="WIyWlLk6GJQsqaUBKTNV-1">
          <mxGeometry x="620" y="260.0000000000001" as="geometry" />
        </mxCell>
        <mxCell id="KRZpOHScRzdug_o26mUK-47" value="" style="rounded=0;whiteSpace=wrap;html=1;" vertex="1" parent="WIyWlLk6GJQsqaUBKTNV-1">
          <mxGeometry x="-120" y="600" width="120" height="120" as="geometry" />
        </mxCell>
        <mxCell id="KRZpOHScRzdug_o26mUK-48" value="&lt;b&gt;Trajectory Optimizer&lt;/b&gt;" style="rounded=0;whiteSpace=wrap;html=1;" vertex="1" parent="WIyWlLk6GJQsqaUBKTNV-1">
          <mxGeometry x="-120" y="600" width="120" height="30" as="geometry" />
        </mxCell>
        <mxCell id="KRZpOHScRzdug_o26mUK-53" value="1" style="edgeLabel;resizable=0;html=1;;align=right;verticalAlign=bottom;" connectable="0" vertex="1" parent="WIyWlLk6GJQsqaUBKTNV-1">
          <mxGeometry x="-121.00170442602484" y="680.5189377677927" as="geometry">
            <mxPoint x="-6" y="-484" as="offset" />
          </mxGeometry>
        </mxCell>
        <mxCell id="KRZpOHScRzdug_o26mUK-54" value="" style="endArrow=classic;html=1;rounded=0;" edge="1" parent="WIyWlLk6GJQsqaUBKTNV-1">
          <mxGeometry relative="1" as="geometry">
            <mxPoint x="-60.43000000000001" y="480" as="sourcePoint" />
            <mxPoint x="-60.43000000000001" y="600" as="targetPoint" />
          </mxGeometry>
        </mxCell>
        <mxCell id="KRZpOHScRzdug_o26mUK-55" value="enthält" style="edgeLabel;resizable=0;html=1;;align=center;verticalAlign=middle;" connectable="0" vertex="1" parent="KRZpOHScRzdug_o26mUK-54">
          <mxGeometry relative="1" as="geometry" />
        </mxCell>
        <mxCell id="KRZpOHScRzdug_o26mUK-56" value="1" style="edgeLabel;resizable=0;html=1;;align=left;verticalAlign=bottom;" connectable="0" vertex="1" parent="KRZpOHScRzdug_o26mUK-54">
          <mxGeometry x="-1" relative="1" as="geometry" />
        </mxCell>
        <mxCell id="KRZpOHScRzdug_o26mUK-57" value="1" style="edgeLabel;resizable=0;html=1;;align=right;verticalAlign=bottom;" connectable="0" vertex="1" parent="KRZpOHScRzdug_o26mUK-54">
          <mxGeometry x="1" relative="1" as="geometry">
            <mxPoint x="-10" y="-10" as="offset" />
          </mxGeometry>
        </mxCell>
        <mxCell id="KRZpOHScRzdug_o26mUK-58" value="" style="rounded=0;whiteSpace=wrap;html=1;" vertex="1" parent="WIyWlLk6GJQsqaUBKTNV-1">
          <mxGeometry x="120" y="600" width="120" height="120" as="geometry" />
        </mxCell>
        <mxCell id="KRZpOHScRzdug_o26mUK-59" value="&lt;b&gt;Trajectory Pattern&lt;/b&gt;" style="rounded=0;whiteSpace=wrap;html=1;" vertex="1" parent="WIyWlLk6GJQsqaUBKTNV-1">
          <mxGeometry x="120" y="600" width="120" height="30" as="geometry" />
        </mxCell>
        <mxCell id="KRZpOHScRzdug_o26mUK-60" value="" style="endArrow=classic;html=1;rounded=0;" edge="1" parent="WIyWlLk6GJQsqaUBKTNV-1">
          <mxGeometry relative="1" as="geometry">
            <mxPoint y="670" as="sourcePoint" />
            <mxPoint x="120" y="670" as="targetPoint" />
          </mxGeometry>
        </mxCell>
        <mxCell id="KRZpOHScRzdug_o26mUK-61" value="enthält" style="edgeLabel;resizable=0;html=1;;align=center;verticalAlign=middle;" connectable="0" vertex="1" parent="KRZpOHScRzdug_o26mUK-60">
          <mxGeometry relative="1" as="geometry" />
        </mxCell>
        <mxCell id="KRZpOHScRzdug_o26mUK-62" value="1" style="edgeLabel;resizable=0;html=1;;align=left;verticalAlign=bottom;" connectable="0" vertex="1" parent="KRZpOHScRzdug_o26mUK-60">
          <mxGeometry x="-1" relative="1" as="geometry" />
        </mxCell>
        <mxCell id="KRZpOHScRzdug_o26mUK-63" value="1...*" style="edgeLabel;resizable=0;html=1;;align=right;verticalAlign=bottom;" connectable="0" vertex="1" parent="KRZpOHScRzdug_o26mUK-60">
          <mxGeometry x="1" relative="1" as="geometry">
            <mxPoint x="-10" y="-10" as="offset" />
          </mxGeometry>
        </mxCell>
        <mxCell id="KRZpOHScRzdug_o26mUK-65" value="" style="endArrow=classic;html=1;rounded=0;" edge="1" parent="WIyWlLk6GJQsqaUBKTNV-1">
          <mxGeometry relative="1" as="geometry">
            <mxPoint x="240" y="670" as="sourcePoint" />
            <mxPoint x="680" y="240" as="targetPoint" />
            <Array as="points">
              <mxPoint x="680" y="670" />
            </Array>
          </mxGeometry>
        </mxCell>
        <mxCell id="KRZpOHScRzdug_o26mUK-66" value="enthält" style="edgeLabel;resizable=0;html=1;;align=center;verticalAlign=middle;" connectable="0" vertex="1" parent="KRZpOHScRzdug_o26mUK-65">
          <mxGeometry relative="1" as="geometry">
            <mxPoint x="-45" as="offset" />
          </mxGeometry>
        </mxCell>
        <mxCell id="KRZpOHScRzdug_o26mUK-67" value="1" style="edgeLabel;resizable=0;html=1;;align=left;verticalAlign=bottom;" connectable="0" vertex="1" parent="KRZpOHScRzdug_o26mUK-65">
          <mxGeometry x="-1" relative="1" as="geometry" />
        </mxCell>
        <mxCell id="KRZpOHScRzdug_o26mUK-68" value="1...*" style="edgeLabel;resizable=0;html=1;;align=right;verticalAlign=bottom;" connectable="0" vertex="1" parent="KRZpOHScRzdug_o26mUK-65">
          <mxGeometry x="1" relative="1" as="geometry">
            <mxPoint x="-10" y="-10" as="offset" />
          </mxGeometry>
        </mxCell>
        <mxCell id="KRZpOHScRzdug_o26mUK-70" value="1...*" style="edgeLabel;resizable=0;html=1;;align=right;verticalAlign=bottom;" connectable="0" vertex="1" parent="WIyWlLk6GJQsqaUBKTNV-1">
          <mxGeometry x="710" y="260.0000000000001" as="geometry" />
        </mxCell>
        <mxCell id="KRZpOHScRzdug_o26mUK-71" value="" style="rounded=0;whiteSpace=wrap;html=1;" vertex="1" parent="WIyWlLk6GJQsqaUBKTNV-1">
          <mxGeometry x="120" y="840" width="120" height="120" as="geometry" />
        </mxCell>
        <mxCell id="KRZpOHScRzdug_o26mUK-72" value="" style="rounded=0;whiteSpace=wrap;html=1;" vertex="1" parent="WIyWlLk6GJQsqaUBKTNV-1">
          <mxGeometry x="-40" y="840" width="120" height="120" as="geometry" />
        </mxCell>
        <mxCell id="KRZpOHScRzdug_o26mUK-73" value="" style="rounded=0;whiteSpace=wrap;html=1;" vertex="1" parent="WIyWlLk6GJQsqaUBKTNV-1">
          <mxGeometry x="280" y="840" width="120" height="120" as="geometry" />
        </mxCell>
        <mxCell id="KRZpOHScRzdug_o26mUK-74" value="" style="endArrow=classic;html=1;rounded=0;entryX=0.5;entryY=1;entryDx=0;entryDy=0;" edge="1" parent="WIyWlLk6GJQsqaUBKTNV-1" target="KRZpOHScRzdug_o26mUK-58">
          <mxGeometry width="50" height="50" relative="1" as="geometry">
            <mxPoint x="180" y="800" as="sourcePoint" />
            <mxPoint x="220" y="730" as="targetPoint" />
          </mxGeometry>
        </mxCell>
        <mxCell id="KRZpOHScRzdug_o26mUK-75" value="" style="endArrow=none;html=1;rounded=0;" edge="1" parent="WIyWlLk6GJQsqaUBKTNV-1">
          <mxGeometry width="50" height="50" relative="1" as="geometry">
            <mxPoint x="20" y="800" as="sourcePoint" />
            <mxPoint x="340" y="800" as="targetPoint" />
          </mxGeometry>
        </mxCell>
        <mxCell id="KRZpOHScRzdug_o26mUK-76" value="" style="endArrow=none;html=1;rounded=0;" edge="1" parent="WIyWlLk6GJQsqaUBKTNV-1">
          <mxGeometry width="50" height="50" relative="1" as="geometry">
            <mxPoint x="19.710000000000008" y="840" as="sourcePoint" />
            <mxPoint x="19.710000000000008" y="800" as="targetPoint" />
          </mxGeometry>
        </mxCell>
        <mxCell id="KRZpOHScRzdug_o26mUK-77" value="" style="endArrow=none;html=1;rounded=0;" edge="1" parent="WIyWlLk6GJQsqaUBKTNV-1">
          <mxGeometry width="50" height="50" relative="1" as="geometry">
            <mxPoint x="179.70999999999998" y="840" as="sourcePoint" />
            <mxPoint x="179.70999999999998" y="800" as="targetPoint" />
          </mxGeometry>
        </mxCell>
        <mxCell id="KRZpOHScRzdug_o26mUK-78" value="" style="endArrow=none;html=1;rounded=0;" edge="1" parent="WIyWlLk6GJQsqaUBKTNV-1">
          <mxGeometry width="50" height="50" relative="1" as="geometry">
            <mxPoint x="339.71" y="840" as="sourcePoint" />
            <mxPoint x="339.71" y="800" as="targetPoint" />
          </mxGeometry>
        </mxCell>
        <mxCell id="KRZpOHScRzdug_o26mUK-80" value="&lt;b&gt;Pattern 1&lt;/b&gt;" style="rounded=0;whiteSpace=wrap;html=1;" vertex="1" parent="WIyWlLk6GJQsqaUBKTNV-1">
          <mxGeometry x="-40" y="840" width="120" height="30" as="geometry" />
        </mxCell>
        <mxCell id="KRZpOHScRzdug_o26mUK-81" value="&lt;b&gt;Pattern 2&lt;/b&gt;" style="rounded=0;whiteSpace=wrap;html=1;" vertex="1" parent="WIyWlLk6GJQsqaUBKTNV-1">
          <mxGeometry x="120" y="840" width="120" height="30" as="geometry" />
        </mxCell>
        <mxCell id="KRZpOHScRzdug_o26mUK-82" value="&lt;b&gt;Pattern N&lt;/b&gt;" style="rounded=0;whiteSpace=wrap;html=1;" vertex="1" parent="WIyWlLk6GJQsqaUBKTNV-1">
          <mxGeometry x="280" y="840" width="120" height="30" as="geometry" />
        </mxCell>
        <mxCell id="KRZpOHScRzdug_o26mUK-84" value="" style="endArrow=classic;html=1;rounded=0;exitX=0.5;exitY=1;exitDx=0;exitDy=0;entryX=1.002;entryY=0.325;entryDx=0;entryDy=0;entryPerimeter=0;" edge="1" parent="WIyWlLk6GJQsqaUBKTNV-1" source="KRZpOHScRzdug_o26mUK-11" target="KRZpOHScRzdug_o26mUK-36">
          <mxGeometry relative="1" as="geometry">
            <mxPoint x="180" y="280" as="sourcePoint" />
            <mxPoint x="80" y="400" as="targetPoint" />
            <Array as="points">
              <mxPoint x="180" y="400" />
            </Array>
          </mxGeometry>
        </mxCell>
        <mxCell id="KRZpOHScRzdug_o26mUK-85" value="enthält" style="edgeLabel;resizable=0;html=1;;align=center;verticalAlign=middle;" connectable="0" vertex="1" parent="KRZpOHScRzdug_o26mUK-84">
          <mxGeometry relative="1" as="geometry">
            <mxPoint x="-60" as="offset" />
          </mxGeometry>
        </mxCell>
        <mxCell id="KRZpOHScRzdug_o26mUK-86" value="1" style="edgeLabel;resizable=0;html=1;;align=left;verticalAlign=bottom;" connectable="0" vertex="1" parent="KRZpOHScRzdug_o26mUK-84">
          <mxGeometry x="-1" relative="1" as="geometry">
            <mxPoint x="10" y="20" as="offset" />
          </mxGeometry>
        </mxCell>
        <mxCell id="KRZpOHScRzdug_o26mUK-87" value="1" style="edgeLabel;resizable=0;html=1;;align=right;verticalAlign=bottom;" connectable="0" vertex="1" parent="KRZpOHScRzdug_o26mUK-84">
          <mxGeometry x="1" relative="1" as="geometry">
            <mxPoint x="-10" y="-10" as="offset" />
          </mxGeometry>
        </mxCell>
        <mxCell id="KRZpOHScRzdug_o26mUK-88" value="" style="rounded=0;whiteSpace=wrap;html=1;" vertex="1" parent="WIyWlLk6GJQsqaUBKTNV-1">
          <mxGeometry x="-360" y="360" width="120" height="120" as="geometry" />
        </mxCell>
        <mxCell id="KRZpOHScRzdug_o26mUK-89" value="&lt;b&gt;PPC&lt;/b&gt;" style="rounded=0;whiteSpace=wrap;html=1;" vertex="1" parent="WIyWlLk6GJQsqaUBKTNV-1">
          <mxGeometry x="-360" y="360" width="120" height="30" as="geometry" />
        </mxCell>
        <mxCell id="KRZpOHScRzdug_o26mUK-90" value="" style="endArrow=classic;html=1;rounded=0;entryX=0.5;entryY=0;entryDx=0;entryDy=0;exitX=0;exitY=0.556;exitDx=0;exitDy=0;exitPerimeter=0;" edge="1" parent="WIyWlLk6GJQsqaUBKTNV-1" source="KRZpOHScRzdug_o26mUK-31" target="KRZpOHScRzdug_o26mUK-89">
          <mxGeometry relative="1" as="geometry">
            <mxPoint x="-200" y="200" as="sourcePoint" />
            <mxPoint x="-300" y="340" as="targetPoint" />
            <Array as="points">
              <mxPoint x="-300" y="200" />
            </Array>
          </mxGeometry>
        </mxCell>
        <mxCell id="KRZpOHScRzdug_o26mUK-91" value="enthält" style="edgeLabel;resizable=0;html=1;;align=center;verticalAlign=middle;" connectable="0" vertex="1" parent="KRZpOHScRzdug_o26mUK-90">
          <mxGeometry relative="1" as="geometry">
            <mxPoint x="40" as="offset" />
          </mxGeometry>
        </mxCell>
        <mxCell id="KRZpOHScRzdug_o26mUK-92" value="1" style="edgeLabel;resizable=0;html=1;;align=left;verticalAlign=bottom;" connectable="0" vertex="1" parent="KRZpOHScRzdug_o26mUK-90">
          <mxGeometry x="-1" relative="1" as="geometry">
            <mxPoint x="-28" as="offset" />
          </mxGeometry>
        </mxCell>
        <mxCell id="KRZpOHScRzdug_o26mUK-93" value="1" style="edgeLabel;resizable=0;html=1;;align=right;verticalAlign=bottom;" connectable="0" vertex="1" parent="KRZpOHScRzdug_o26mUK-90">
          <mxGeometry x="1" relative="1" as="geometry">
            <mxPoint x="-10" y="-10" as="offset" />
          </mxGeometry>
        </mxCell>
        <mxCell id="KRZpOHScRzdug_o26mUK-98" value="" style="endArrow=classic;html=1;rounded=0;" edge="1" parent="WIyWlLk6GJQsqaUBKTNV-1">
          <mxGeometry relative="1" as="geometry">
            <mxPoint x="-121" y="430" as="sourcePoint" />
            <mxPoint x="-241" y="430" as="targetPoint" />
          </mxGeometry>
        </mxCell>
        <mxCell id="KRZpOHScRzdug_o26mUK-99" value="enthält" style="edgeLabel;resizable=0;html=1;;align=center;verticalAlign=middle;" connectable="0" vertex="1" parent="KRZpOHScRzdug_o26mUK-98">
          <mxGeometry relative="1" as="geometry" />
        </mxCell>
        <mxCell id="KRZpOHScRzdug_o26mUK-100" value="1" style="edgeLabel;resizable=0;html=1;;align=left;verticalAlign=bottom;" connectable="0" vertex="1" parent="KRZpOHScRzdug_o26mUK-98">
          <mxGeometry x="-1" relative="1" as="geometry" />
        </mxCell>
        <mxCell id="KRZpOHScRzdug_o26mUK-101" value="1" style="edgeLabel;resizable=0;html=1;;align=right;verticalAlign=bottom;" connectable="0" vertex="1" parent="KRZpOHScRzdug_o26mUK-98">
          <mxGeometry x="1" relative="1" as="geometry">
            <mxPoint x="21" y="-10" as="offset" />
          </mxGeometry>
        </mxCell>
        <mxCell id="KRZpOHScRzdug_o26mUK-102" value="" style="endArrow=classic;html=1;rounded=0;entryX=0;entryY=0.772;entryDx=0;entryDy=0;entryPerimeter=0;" edge="1" parent="WIyWlLk6GJQsqaUBKTNV-1" target="KRZpOHScRzdug_o26mUK-24">
          <mxGeometry relative="1" as="geometry">
            <mxPoint x="-260" y="360" as="sourcePoint" />
            <mxPoint x="560" y="240" as="targetPoint" />
            <Array as="points">
              <mxPoint x="-260" y="280" />
              <mxPoint x="560" y="280" />
              <mxPoint x="560" y="220" />
            </Array>
          </mxGeometry>
        </mxCell>
        <mxCell id="KRZpOHScRzdug_o26mUK-103" value="enthält" style="edgeLabel;resizable=0;html=1;;align=center;verticalAlign=middle;" connectable="0" vertex="1" parent="KRZpOHScRzdug_o26mUK-102">
          <mxGeometry relative="1" as="geometry">
            <mxPoint x="95" as="offset" />
          </mxGeometry>
        </mxCell>
        <mxCell id="KRZpOHScRzdug_o26mUK-104" value="1" style="edgeLabel;resizable=0;html=1;;align=left;verticalAlign=bottom;" connectable="0" vertex="1" parent="KRZpOHScRzdug_o26mUK-102">
          <mxGeometry x="-1" relative="1" as="geometry" />
        </mxCell>
        <mxCell id="KRZpOHScRzdug_o26mUK-105" value="1" style="edgeLabel;resizable=0;html=1;;align=right;verticalAlign=bottom;" connectable="0" vertex="1" parent="KRZpOHScRzdug_o26mUK-102">
          <mxGeometry x="1" relative="1" as="geometry">
            <mxPoint x="-20" y="1" as="offset" />
          </mxGeometry>
        </mxCell>
        <mxCell id="KRZpOHScRzdug_o26mUK-106" value="" style="rounded=0;whiteSpace=wrap;html=1;" vertex="1" parent="WIyWlLk6GJQsqaUBKTNV-1">
          <mxGeometry x="-120" y="-120" width="120" height="120" as="geometry" />
        </mxCell>
        <mxCell id="KRZpOHScRzdug_o26mUK-107" value="&lt;b&gt;Drone&lt;/b&gt;" style="rounded=0;whiteSpace=wrap;html=1;" vertex="1" parent="WIyWlLk6GJQsqaUBKTNV-1">
          <mxGeometry x="-120" y="-120" width="120" height="30" as="geometry" />
        </mxCell>
        <mxCell id="KRZpOHScRzdug_o26mUK-108" value="" style="endArrow=classic;html=1;rounded=0;" edge="1" parent="WIyWlLk6GJQsqaUBKTNV-1">
          <mxGeometry relative="1" as="geometry">
            <mxPoint x="-60.430000000000035" y="120" as="sourcePoint" />
            <mxPoint x="-60.43000000000001" as="targetPoint" />
          </mxGeometry>
        </mxCell>
        <mxCell id="KRZpOHScRzdug_o26mUK-109" value="enthält" style="edgeLabel;resizable=0;html=1;;align=center;verticalAlign=middle;" connectable="0" vertex="1" parent="KRZpOHScRzdug_o26mUK-108">
          <mxGeometry relative="1" as="geometry">
            <mxPoint y="10" as="offset" />
          </mxGeometry>
        </mxCell>
        <mxCell id="KRZpOHScRzdug_o26mUK-110" value="1" style="edgeLabel;resizable=0;html=1;;align=left;verticalAlign=bottom;" connectable="0" vertex="1" parent="KRZpOHScRzdug_o26mUK-108">
          <mxGeometry x="-1" relative="1" as="geometry" />
        </mxCell>
        <mxCell id="KRZpOHScRzdug_o26mUK-111" value="1" style="edgeLabel;resizable=0;html=1;;align=right;verticalAlign=bottom;" connectable="0" vertex="1" parent="KRZpOHScRzdug_o26mUK-108">
          <mxGeometry x="1" relative="1" as="geometry">
            <mxPoint x="-10" y="20" as="offset" />
          </mxGeometry>
        </mxCell>
        <mxCell id="KRZpOHScRzdug_o26mUK-112" value="" style="endArrow=classic;html=1;rounded=0;" edge="1" parent="WIyWlLk6GJQsqaUBKTNV-1">
          <mxGeometry relative="1" as="geometry">
            <mxPoint x="-2.842170943040401e-14" y="-50" as="sourcePoint" />
            <mxPoint x="640" y="119" as="targetPoint" />
            <Array as="points">
              <mxPoint x="640" y="-50" />
            </Array>
          </mxGeometry>
        </mxCell>
        <mxCell id="KRZpOHScRzdug_o26mUK-113" value="enthält" style="edgeLabel;resizable=0;html=1;;align=center;verticalAlign=middle;" connectable="0" vertex="1" parent="KRZpOHScRzdug_o26mUK-112">
          <mxGeometry relative="1" as="geometry">
            <mxPoint y="10" as="offset" />
          </mxGeometry>
        </mxCell>
        <mxCell id="KRZpOHScRzdug_o26mUK-114" value="1" style="edgeLabel;resizable=0;html=1;;align=left;verticalAlign=bottom;" connectable="0" vertex="1" parent="KRZpOHScRzdug_o26mUK-112">
          <mxGeometry x="-1" relative="1" as="geometry" />
        </mxCell>
        <mxCell id="KRZpOHScRzdug_o26mUK-115" value="1" style="edgeLabel;resizable=0;html=1;;align=right;verticalAlign=bottom;" connectable="0" vertex="1" parent="KRZpOHScRzdug_o26mUK-112">
          <mxGeometry x="1" relative="1" as="geometry">
            <mxPoint x="-10" y="-9" as="offset" />
          </mxGeometry>
        </mxCell>
        <mxCell id="KRZpOHScRzdug_o26mUK-116" value="" style="rounded=0;whiteSpace=wrap;html=1;" vertex="1" parent="WIyWlLk6GJQsqaUBKTNV-1">
          <mxGeometry x="-360" y="-120" width="120" height="120" as="geometry" />
        </mxCell>
        <mxCell id="KRZpOHScRzdug_o26mUK-117" value="&lt;b&gt;TF&lt;/b&gt;" style="rounded=0;whiteSpace=wrap;html=1;" vertex="1" parent="WIyWlLk6GJQsqaUBKTNV-1">
          <mxGeometry x="-360" y="-120" width="120" height="30" as="geometry" />
        </mxCell>
        <mxCell id="KRZpOHScRzdug_o26mUK-118" value="" style="endArrow=classic;html=1;rounded=0;exitX=-0.004;exitY=0.333;exitDx=0;exitDy=0;exitPerimeter=0;" edge="1" parent="WIyWlLk6GJQsqaUBKTNV-1" source="KRZpOHScRzdug_o26mUK-31">
          <mxGeometry relative="1" as="geometry">
            <mxPoint x="-130" y="160" as="sourcePoint" />
            <mxPoint x="-300.43" as="targetPoint" />
            <Array as="points">
              <mxPoint x="-300" y="180" />
            </Array>
          </mxGeometry>
        </mxCell>
        <mxCell id="KRZpOHScRzdug_o26mUK-119" value="enthält" style="edgeLabel;resizable=0;html=1;;align=center;verticalAlign=middle;" connectable="0" vertex="1" parent="KRZpOHScRzdug_o26mUK-118">
          <mxGeometry relative="1" as="geometry">
            <mxPoint x="41" as="offset" />
          </mxGeometry>
        </mxCell>
        <mxCell id="KRZpOHScRzdug_o26mUK-120" value="1" style="edgeLabel;resizable=0;html=1;;align=left;verticalAlign=bottom;" connectable="0" vertex="1" parent="KRZpOHScRzdug_o26mUK-118">
          <mxGeometry x="-1" relative="1" as="geometry" />
        </mxCell>
        <mxCell id="KRZpOHScRzdug_o26mUK-121" value="1" style="edgeLabel;resizable=0;html=1;;align=right;verticalAlign=bottom;" connectable="0" vertex="1" parent="KRZpOHScRzdug_o26mUK-118">
          <mxGeometry x="1" relative="1" as="geometry">
            <mxPoint x="-10" y="20" as="offset" />
          </mxGeometry>
        </mxCell>
        <mxCell id="KRZpOHScRzdug_o26mUK-122" value="" style="endArrow=classic;html=1;rounded=0;" edge="1" parent="WIyWlLk6GJQsqaUBKTNV-1">
          <mxGeometry relative="1" as="geometry">
            <mxPoint x="-340" as="sourcePoint" />
            <mxPoint x="-340" y="360" as="targetPoint" />
          </mxGeometry>
        </mxCell>
        <mxCell id="KRZpOHScRzdug_o26mUK-123" value="enthält" style="edgeLabel;resizable=0;html=1;;align=center;verticalAlign=middle;" connectable="0" vertex="1" parent="KRZpOHScRzdug_o26mUK-122">
          <mxGeometry relative="1" as="geometry">
            <mxPoint y="10" as="offset" />
          </mxGeometry>
        </mxCell>
        <mxCell id="KRZpOHScRzdug_o26mUK-124" value="1" style="edgeLabel;resizable=0;html=1;;align=left;verticalAlign=bottom;" connectable="0" vertex="1" parent="KRZpOHScRzdug_o26mUK-122">
          <mxGeometry x="-1" relative="1" as="geometry" />
        </mxCell>
        <mxCell id="KRZpOHScRzdug_o26mUK-125" value="1" style="edgeLabel;resizable=0;html=1;;align=right;verticalAlign=bottom;" connectable="0" vertex="1" parent="KRZpOHScRzdug_o26mUK-122">
          <mxGeometry x="1" relative="1" as="geometry">
            <mxPoint x="-10" y="20" as="offset" />
          </mxGeometry>
        </mxCell>
        <mxCell id="KRZpOHScRzdug_o26mUK-126" value="" style="endArrow=classic;html=1;rounded=0;" edge="1" parent="WIyWlLk6GJQsqaUBKTNV-1">
          <mxGeometry relative="1" as="geometry">
            <mxPoint x="-241" y="-50" as="sourcePoint" />
            <mxPoint x="-121" y="-50" as="targetPoint" />
          </mxGeometry>
        </mxCell>
        <mxCell id="KRZpOHScRzdug_o26mUK-127" value="enthält" style="edgeLabel;resizable=0;html=1;;align=center;verticalAlign=middle;" connectable="0" vertex="1" parent="KRZpOHScRzdug_o26mUK-126">
          <mxGeometry relative="1" as="geometry">
            <mxPoint y="10" as="offset" />
          </mxGeometry>
        </mxCell>
        <mxCell id="KRZpOHScRzdug_o26mUK-128" value="1" style="edgeLabel;resizable=0;html=1;;align=left;verticalAlign=bottom;" connectable="0" vertex="1" parent="KRZpOHScRzdug_o26mUK-126">
          <mxGeometry x="-1" relative="1" as="geometry" />
        </mxCell>
        <mxCell id="KRZpOHScRzdug_o26mUK-129" value="1" style="edgeLabel;resizable=0;html=1;;align=right;verticalAlign=bottom;" connectable="0" vertex="1" parent="KRZpOHScRzdug_o26mUK-126">
          <mxGeometry x="1" relative="1" as="geometry">
            <mxPoint x="-10" y="20" as="offset" />
          </mxGeometry>
        </mxCell>
        <mxCell id="KRZpOHScRzdug_o26mUK-130" value="" style="rounded=0;whiteSpace=wrap;html=1;" vertex="1" parent="WIyWlLk6GJQsqaUBKTNV-1">
          <mxGeometry x="-560" y="40" width="120" height="120" as="geometry" />
        </mxCell>
        <mxCell id="KRZpOHScRzdug_o26mUK-131" value="&lt;b&gt;State&lt;/b&gt;" style="rounded=0;whiteSpace=wrap;html=1;" vertex="1" parent="WIyWlLk6GJQsqaUBKTNV-1">
          <mxGeometry x="-560" y="40" width="120" height="30" as="geometry" />
        </mxCell>
        <mxCell id="KRZpOHScRzdug_o26mUK-132" value="" style="endArrow=classic;html=1;rounded=0;entryX=0.5;entryY=0;entryDx=0;entryDy=0;exitX=0.5;exitY=0;exitDx=0;exitDy=0;" edge="1" parent="WIyWlLk6GJQsqaUBKTNV-1" source="KRZpOHScRzdug_o26mUK-107">
          <mxGeometry relative="1" as="geometry">
            <mxPoint y="-160" as="sourcePoint" />
            <mxPoint x="-500.30000000000007" y="40" as="targetPoint" />
            <Array as="points">
              <mxPoint x="-60" y="-160" />
              <mxPoint x="-500" y="-160" />
            </Array>
          </mxGeometry>
        </mxCell>
        <mxCell id="KRZpOHScRzdug_o26mUK-133" value="enthält" style="edgeLabel;resizable=0;html=1;;align=center;verticalAlign=middle;" connectable="0" vertex="1" parent="KRZpOHScRzdug_o26mUK-132">
          <mxGeometry relative="1" as="geometry">
            <mxPoint x="-60" as="offset" />
          </mxGeometry>
        </mxCell>
        <mxCell id="KRZpOHScRzdug_o26mUK-134" value="1" style="edgeLabel;resizable=0;html=1;;align=left;verticalAlign=bottom;" connectable="0" vertex="1" parent="KRZpOHScRzdug_o26mUK-132">
          <mxGeometry x="-1" relative="1" as="geometry" />
        </mxCell>
        <mxCell id="KRZpOHScRzdug_o26mUK-135" value="1" style="edgeLabel;resizable=0;html=1;;align=right;verticalAlign=bottom;" connectable="0" vertex="1" parent="KRZpOHScRzdug_o26mUK-132">
          <mxGeometry x="1" relative="1" as="geometry">
            <mxPoint x="-10" y="-10" as="offset" />
          </mxGeometry>
        </mxCell>
        <mxCell id="KRZpOHScRzdug_o26mUK-136" value="" style="endArrow=classic;html=1;rounded=0;exitX=-0.012;exitY=0.33;exitDx=0;exitDy=0;exitPerimeter=0;" edge="1" parent="WIyWlLk6GJQsqaUBKTNV-1" source="KRZpOHScRzdug_o26mUK-88">
          <mxGeometry relative="1" as="geometry">
            <mxPoint x="-500" y="410" as="sourcePoint" />
            <mxPoint x="-500.3" y="160" as="targetPoint" />
            <Array as="points">
              <mxPoint x="-500" y="400" />
            </Array>
          </mxGeometry>
        </mxCell>
        <mxCell id="KRZpOHScRzdug_o26mUK-137" value="enthält" style="edgeLabel;resizable=0;html=1;;align=center;verticalAlign=middle;" connectable="0" vertex="1" parent="KRZpOHScRzdug_o26mUK-136">
          <mxGeometry relative="1" as="geometry">
            <mxPoint y="10" as="offset" />
          </mxGeometry>
        </mxCell>
        <mxCell id="KRZpOHScRzdug_o26mUK-138" value="1" style="edgeLabel;resizable=0;html=1;;align=left;verticalAlign=bottom;" connectable="0" vertex="1" parent="KRZpOHScRzdug_o26mUK-136">
          <mxGeometry x="-1" relative="1" as="geometry">
            <mxPoint x="-19" y="-10" as="offset" />
          </mxGeometry>
        </mxCell>
        <mxCell id="KRZpOHScRzdug_o26mUK-139" value="1" style="edgeLabel;resizable=0;html=1;;align=right;verticalAlign=bottom;" connectable="0" vertex="1" parent="KRZpOHScRzdug_o26mUK-136">
          <mxGeometry x="1" relative="1" as="geometry">
            <mxPoint x="-10" y="20" as="offset" />
          </mxGeometry>
        </mxCell>
        <mxCell id="KRZpOHScRzdug_o26mUK-140" value="" style="rounded=0;whiteSpace=wrap;html=1;" vertex="1" parent="WIyWlLk6GJQsqaUBKTNV-1">
          <mxGeometry x="120" y="-240" width="120" height="120" as="geometry" />
        </mxCell>
        <mxCell id="KRZpOHScRzdug_o26mUK-141" value="&lt;b&gt;Sampler&lt;/b&gt;" style="rounded=0;whiteSpace=wrap;html=1;" vertex="1" parent="WIyWlLk6GJQsqaUBKTNV-1">
          <mxGeometry x="120" y="-240" width="120" height="30" as="geometry" />
        </mxCell>
        <mxCell id="KRZpOHScRzdug_o26mUK-142" value="" style="endArrow=classic;html=1;rounded=0;entryX=0.5;entryY=0;entryDx=0;entryDy=0;" edge="1" parent="WIyWlLk6GJQsqaUBKTNV-1" target="KRZpOHScRzdug_o26mUK-10">
          <mxGeometry relative="1" as="geometry">
            <mxPoint x="179.63" y="-120" as="sourcePoint" />
            <mxPoint x="179.63" y="-60" as="targetPoint" />
          </mxGeometry>
        </mxCell>
        <mxCell id="KRZpOHScRzdug_o26mUK-143" value="enthält" style="edgeLabel;resizable=0;html=1;;align=center;verticalAlign=middle;" connectable="0" vertex="1" parent="KRZpOHScRzdug_o26mUK-142">
          <mxGeometry relative="1" as="geometry" />
        </mxCell>
        <mxCell id="KRZpOHScRzdug_o26mUK-144" value="1" style="edgeLabel;resizable=0;html=1;;align=left;verticalAlign=bottom;" connectable="0" vertex="1" parent="KRZpOHScRzdug_o26mUK-142">
          <mxGeometry x="-1" relative="1" as="geometry" />
        </mxCell>
        <mxCell id="KRZpOHScRzdug_o26mUK-145" value="1" style="edgeLabel;resizable=0;html=1;;align=right;verticalAlign=bottom;" connectable="0" vertex="1" parent="KRZpOHScRzdug_o26mUK-142">
          <mxGeometry x="1" relative="1" as="geometry">
            <mxPoint x="-10" y="-10" as="offset" />
          </mxGeometry>
        </mxCell>
        <mxCell id="KRZpOHScRzdug_o26mUK-146" value="" style="endArrow=classic;html=1;rounded=0;entryX=0.25;entryY=1;entryDx=0;entryDy=0;exitX=0.75;exitY=0;exitDx=0;exitDy=0;" edge="1" parent="WIyWlLk6GJQsqaUBKTNV-1" source="KRZpOHScRzdug_o26mUK-30" target="KRZpOHScRzdug_o26mUK-140">
          <mxGeometry relative="1" as="geometry">
            <mxPoint x="50" y="-320" as="sourcePoint" />
            <mxPoint x="50.370000000000005" y="-80" as="targetPoint" />
            <Array as="points">
              <mxPoint x="-30" y="60" />
              <mxPoint x="150" y="60" />
            </Array>
          </mxGeometry>
        </mxCell>
        <mxCell id="KRZpOHScRzdug_o26mUK-147" value="enthält" style="edgeLabel;resizable=0;html=1;;align=center;verticalAlign=middle;" connectable="0" vertex="1" parent="KRZpOHScRzdug_o26mUK-146">
          <mxGeometry relative="1" as="geometry">
            <mxPoint x="-40" as="offset" />
          </mxGeometry>
        </mxCell>
        <mxCell id="KRZpOHScRzdug_o26mUK-148" value="1" style="edgeLabel;resizable=0;html=1;;align=left;verticalAlign=bottom;" connectable="0" vertex="1" parent="KRZpOHScRzdug_o26mUK-146">
          <mxGeometry x="-1" relative="1" as="geometry" />
        </mxCell>
        <mxCell id="KRZpOHScRzdug_o26mUK-149" value="1" style="edgeLabel;resizable=0;html=1;;align=right;verticalAlign=bottom;" connectable="0" vertex="1" parent="KRZpOHScRzdug_o26mUK-146">
          <mxGeometry x="1" relative="1" as="geometry">
            <mxPoint x="-10" y="20" as="offset" />
          </mxGeometry>
        </mxCell>
        <mxCell id="KRZpOHScRzdug_o26mUK-150" value="" style="endArrow=classic;html=1;rounded=0;exitX=0.5;exitY=0;exitDx=0;exitDy=0;entryX=0;entryY=0.25;entryDx=0;entryDy=0;" edge="1" parent="WIyWlLk6GJQsqaUBKTNV-1" source="KRZpOHScRzdug_o26mUK-117" target="KRZpOHScRzdug_o26mUK-140">
          <mxGeometry relative="1" as="geometry">
            <mxPoint x="-330" y="-210" as="sourcePoint" />
            <mxPoint x="-210" y="-210" as="targetPoint" />
            <Array as="points">
              <mxPoint x="-300" y="-210" />
            </Array>
          </mxGeometry>
        </mxCell>
        <mxCell id="KRZpOHScRzdug_o26mUK-151" value="enthält" style="edgeLabel;resizable=0;html=1;;align=center;verticalAlign=middle;" connectable="0" vertex="1" parent="KRZpOHScRzdug_o26mUK-150">
          <mxGeometry relative="1" as="geometry">
            <mxPoint as="offset" />
          </mxGeometry>
        </mxCell>
        <mxCell id="KRZpOHScRzdug_o26mUK-152" value="1" style="edgeLabel;resizable=0;html=1;;align=left;verticalAlign=bottom;" connectable="0" vertex="1" parent="KRZpOHScRzdug_o26mUK-150">
          <mxGeometry x="-1" relative="1" as="geometry" />
        </mxCell>
        <mxCell id="KRZpOHScRzdug_o26mUK-153" value="1" style="edgeLabel;resizable=0;html=1;;align=right;verticalAlign=bottom;" connectable="0" vertex="1" parent="KRZpOHScRzdug_o26mUK-150">
          <mxGeometry x="1" relative="1" as="geometry">
            <mxPoint x="-10" y="20" as="offset" />
          </mxGeometry>
        </mxCell>
      </root>
    </mxGraphModel>
  </diagram>
</mxfile>
